<svg width="24" height="12" viewBox="0 0 24 12" fill="none" xmlns="http://www.w3.org/2000/svg">
<path d="M23.3474 10.7155H19.2931L16.6087 6.11036H19.8549C20.0244 6.11036 20.187 6.04362 20.3069 5.92482C20.4268 5.80603 20.4942 5.64491 20.4942 5.47691C20.4942 5.30891 20.4268 5.14779 20.3069 5.02899C20.187 4.9102 20.0244 4.84346 19.8549 4.84346H15.8713L13.7917 1.27562H16.965C17.05 1.27737 17.1346 1.26229 17.2137 1.23125C17.2928 1.20021 17.3648 1.15384 17.4256 1.09486C17.4864 1.03587 17.5347 0.965467 17.5676 0.887758C17.6006 0.81005 17.6176 0.726604 17.6176 0.642311C17.6176 0.558017 17.6006 0.474571 17.5676 0.396862C17.5347 0.319154 17.4864 0.248746 17.4256 0.189764C17.3648 0.130782 17.2928 0.0844122 17.2137 0.0533723C17.1346 0.0223323 17.05 0.00724605 16.965 0.0089979H12.6677C12.5446 0.00916281 12.4242 0.0445518 12.321 0.110907C12.2178 0.177262 12.1361 0.271757 12.0858 0.383022C12.0355 0.494287 12.0187 0.617582 12.0375 0.738073C12.0562 0.858564 12.1097 0.971118 12.1915 1.06219L17.8167 10.7155H14.6103L8.55597 0.325586C8.46973 0.182995 8.33038 0.0797035 8.16797 0.0379907C8.00557 -0.00372201 7.83312 0.0194872 7.68783 0.102612C7.54253 0.185738 7.43604 0.322117 7.39132 0.482332C7.3466 0.642548 7.36724 0.813759 7.44878 0.959035L9.91227 5.18686V8.98509L4.86627 0.325586C4.78003 0.182995 4.64068 0.0797035 4.47827 0.0379907C4.31586 -0.00372201 4.14341 0.0194872 3.99812 0.102612C3.85283 0.185738 3.74634 0.322117 3.70162 0.482332C3.6569 0.642548 3.67754 0.813759 3.75908 0.959035L6.24466 5.22462V8.98509L1.1981 0.325586C1.15688 0.252133 1.10131 0.187543 1.03463 0.135579C0.967961 0.0836157 0.891518 0.0453175 0.809757 0.0229156C0.727997 0.000513776 0.642554 -0.00554341 0.558408 0.00509656C0.474261 0.0157365 0.393092 0.0428605 0.319631 0.0848894C0.24617 0.126918 0.181885 0.183012 0.130522 0.2499C0.0791583 0.316789 0.0417432 0.393136 0.0204566 0.474494C-0.000830113 0.555851 -0.0055627 0.640593 0.00653423 0.723781C0.0186312 0.806969 0.0473159 0.88694 0.0909172 0.959035L6.28691 11.5906C6.34008 11.7286 6.44032 11.8439 6.57025 11.9164C6.70019 11.9889 6.85164 12.0141 6.99835 11.9876C7.14506 11.9611 7.27778 11.8845 7.37352 11.7712C7.46925 11.658 7.52197 11.5151 7.52252 11.3673V7.41857L9.95286 11.5906C10.0057 11.7293 10.106 11.8452 10.2362 11.9181C10.3665 11.991 10.5184 12.0163 10.6656 11.9896C10.8128 11.9629 10.9458 11.8859 11.0415 11.772C11.1372 11.658 11.1895 11.5144 11.1893 11.3662V7.38081L13.6859 11.6656L13.692 11.6743C13.7029 11.6923 13.7147 11.7098 13.7274 11.7266C13.7315 11.732 13.7356 11.7378 13.7401 11.7433C13.7552 11.7625 13.7715 11.7808 13.7889 11.798C13.7934 11.8026 13.7983 11.8065 13.8033 11.8109C13.8168 11.8234 13.8309 11.8358 13.8456 11.847C13.8525 11.8524 13.8596 11.8576 13.8668 11.8628C13.8817 11.8735 13.8972 11.8834 13.9132 11.8929C13.9185 11.896 13.9234 11.8995 13.929 11.9022C13.9508 11.9145 13.9734 11.9253 13.9966 11.9348L14.0066 11.9384C14.0268 11.9462 14.0475 11.953 14.0684 11.9586L14.0875 11.9635C14.1062 11.9682 14.1251 11.9718 14.1441 11.9745L14.1643 11.9778C14.1878 11.9805 14.2115 11.9819 14.2352 11.9821H23.3474C23.4324 11.9839 23.517 11.9688 23.5961 11.9378C23.6752 11.9067 23.7472 11.8604 23.808 11.8014C23.8688 11.7424 23.9171 11.672 23.9501 11.5943C23.983 11.5166 24 11.4331 24 11.3488C24 11.2645 23.983 11.1811 23.9501 11.1034C23.9171 11.0257 23.8688 10.9553 23.808 10.8963C23.7472 10.8373 23.6752 10.7909 23.5961 10.7599C23.517 10.7289 23.4324 10.7138 23.3474 10.7155Z" fill="#070707"/>
</svg>
