<svg width="22" height="20" viewBox="0 0 22 20" fill="none" xmlns="http://www.w3.org/2000/svg">
<path d="M19.4578 2.59133C18.9691 2.08683 18.3889 1.68663 17.7503 1.41358C17.1117 1.14054 16.4272 1 15.7359 1C15.0446 1 14.3601 1.14054 13.7215 1.41358C13.0829 1.68663 12.5026 2.08683 12.0139 2.59133L10.9997 3.63785L9.98554 2.59133C8.99842 1.57276 7.6596 1.00053 6.26361 1.00053C4.86761 1.00053 3.52879 1.57276 2.54168 2.59133C1.55456 3.6099 1 4.99139 1 6.43187C1 7.87235 1.55456 9.25383 2.54168 10.2724L10.9997 19L19.4578 10.2724C19.9467 9.76814 20.3346 9.16942 20.5992 8.51045C20.8638 7.85148 21 7.14517 21 6.43187C21 5.71857 20.8638 5.01225 20.5992 4.35328C20.3346 3.69431 19.9467 3.09559 19.4578 2.59133Z" fill="transparent"/>
<path fill-rule="evenodd" clip-rule="evenodd" d="M13.3284 0.4941C14.0906 0.168186 14.9088 0 15.7359 0C16.563 0 17.3811 0.168187 18.1434 0.4941C18.9056 0.81998 19.596 1.29674 20.1761 1.89557L19.4579 2.59127L20.1758 1.89523C20.1759 1.89534 20.176 1.89546 20.1761 1.89557C20.7562 2.49398 21.2148 3.20276 21.5272 3.98065C21.8396 4.75864 22 5.59148 22 6.43187C22 7.27225 21.8396 8.1051 21.5272 8.88309C21.2148 9.66105 20.7561 10.3699 20.1759 10.9683L19.4578 10.2724L20.1758 10.9685L11.7179 19.6959C11.5295 19.8903 11.2704 20 10.9997 20C10.7291 20 10.47 19.8903 10.2816 19.6959L1.82357 10.9683C0.652537 9.75999 0 8.12762 0 6.43187C0 4.73612 0.652537 3.10375 1.82357 1.8954C2.99563 0.685987 4.59209 0.000527978 6.26361 0.000527978C7.93512 0.000527978 9.53159 0.685987 10.7037 1.8954L10.9997 2.20093L10.2816 2.94192L10.9997 3.63785L11.7179 2.94192L10.9997 2.20093L11.2957 1.89557L12.0138 2.5912L12.0139 2.59133L12.0138 2.5912L11.2958 1.8954C11.8759 1.29665 12.5662 0.81995 13.3284 0.4941ZM15.7359 2C15.1804 2 14.6296 2.11289 14.1146 2.33307C13.5996 2.55328 13.1295 2.87692 12.7322 3.28709L12.7321 3.28726L11.7179 4.33378C11.5295 4.52814 11.2704 4.63785 10.9997 4.63785C10.7291 4.63785 10.47 4.52814 10.2816 4.33378L9.26743 3.28726C8.46526 2.45953 7.38409 2.00053 6.26361 2.00053C5.14313 2.00053 4.06196 2.45953 3.25978 3.28726C2.45658 4.11606 2 5.24666 2 6.43187C2 7.61708 2.45658 8.74767 3.25978 9.57647L10.9997 17.5631L18.7397 9.57647L18.7399 9.5763C19.1374 9.16626 19.4544 8.67772 19.6712 8.13782C19.888 7.59786 20 7.01809 20 6.43187C20 5.84565 19.888 5.26587 19.6712 4.72592C19.4544 4.18601 19.1374 3.69747 18.7399 3.28743L18.7395 3.28709C18.3422 2.87692 17.8722 2.55328 17.3571 2.33307C16.8422 2.11289 16.2914 2 15.7359 2Z" fill="white"/>
</svg>
