<svg width="24" height="23" fill="none" xmlns="http://www.w3.org/2000/svg"><path fill-rule="evenodd" clip-rule="evenodd" d="M.25 1A.75.75 0 011 .25h4a.75.75 0 01.735.603l.88 4.397H23a.75.75 0 01.737.89l-1.601 8.396a2.75 2.75 0 01-2.743 2.214H9.687a2.75 2.75 0 01-2.742-2.213L5.273 6.183a.747.747 0 01-.015-.07L4.385 1.75H1A.75.75 0 01.25 1zm6.666 5.75l1.5 7.494a1.25 1.25 0 001.25 1.006h9.748a1.25 1.25 0 001.25-1.006l1.43-7.494H6.915zM9 20.75a.25.25 0 100 .5.25.25 0 000-.5zM7.25 21a1.75 1.75 0 113.5 0 1.75 1.75 0 01-3.5 0zM20 20.75a.25.25 0 100 .5.25.25 0 000-.5zm-1.75.25a1.75 1.75 0 113.5 0 1.75 1.75 0 01-3.5 0z" fill="#006D77"/></svg>