<svg width="24" height="12" fill="none" xmlns="http://www.w3.org/2000/svg"><path d="M23.347 10.716h-4.054L16.61 6.11h3.246a.64.64 0 00.452-.185.63.63 0 00-.452-1.082H15.87l-2.08-3.567h3.174a.645.645 0 00.603-.388.628.628 0 00-.354-.835.645.645 0 00-.249-.044h-4.297a.643.643 0 00-.582.374.627.627 0 00.105.68l5.626 9.653H14.61L8.556.325a.639.639 0 00-.868-.223.634.634 0 00-.24.856l2.464 4.228v3.798L4.866.325a.639.639 0 00-.868-.222.634.634 0 00-.239.856l2.486 4.266v3.76L1.198.325a.635.635 0 00-.64-.32.643.643 0 00-.538.47.628.628 0 00.07.484l6.197 10.632a.635.635 0 00.711.397.64.64 0 00.525-.62v-3.95l2.43 4.173a.635.635 0 00.713.399.63.63 0 00.524-.623V7.38l2.496 4.285.006.008c.01.018.023.036.035.053l.013.016c.015.02.031.038.049.055l.014.013a.583.583 0 00.11.082l.016.01a.6.6 0 00.068.032l.01.003a.61.61 0 00.061.02l.02.005a.549.549 0 00.056.012l.02.003a.671.671 0 00.071.004h9.112a.645.645 0 00.603-.388.63.63 0 00-.354-.834.646.646 0 00-.249-.044z" fill="#070707"/></svg>