<svg width="22" height="20" fill="none" xmlns="http://www.w3.org/2000/svg"><path d="M19.458 2.591a5.255 5.255 0 00-1.708-1.177 5.122 5.122 0 00-4.028 0 5.255 5.255 0 00-1.708 1.177L11 3.638 9.986 2.59A5.183 5.183 0 006.264 1a5.183 5.183 0 00-3.722 1.59A5.52 5.52 0 001 6.431a5.52 5.52 0 001.542 3.841L11 19l8.458-8.728a5.445 5.445 0 001.141-1.762 5.58 5.58 0 000-4.157 5.445 5.445 0 00-1.141-1.762z" fill="transparent"/><path fill-rule="evenodd" clip-rule="evenodd" d="M13.328.494a6.121 6.121 0 014.815 0 6.255 6.255 0 012.033 1.402l-.718.695.718-.696a6.446 6.446 0 011.351 2.086 6.58 6.58 0 010 4.902 6.444 6.444 0 01-1.351 2.085l-.718-.696.718.697-8.458 8.727a1 1 0 01-1.436 0l-8.458-8.728A6.52 6.52 0 010 6.432a6.52 6.52 0 011.824-4.537A6.182 6.182 0 016.264.001c1.671 0 3.268.685 4.44 1.894l.296.306-.718.74.718.697.718-.696L11 2.2l.296-.305.718.695-.718-.696a6.255 6.255 0 012.032-1.4zM15.736 2c-.556 0-1.106.113-1.621.333-.515.22-.986.544-1.383.954l-1.014 1.047a1 1 0 01-1.436 0L9.267 3.287a4.183 4.183 0 00-3.003-1.286c-1.12 0-2.202.459-3.004 1.286A4.52 4.52 0 002 6.432a4.52 4.52 0 001.26 3.144L11 17.563l7.74-7.987c.397-.41.714-.898.931-1.438a4.581 4.581 0 000-3.412 4.446 4.446 0 00-.931-1.439 4.254 4.254 0 00-1.383-.954A4.121 4.121 0 0015.736 2z" fill="#fff"/></svg>